<?xml version="1.0" ?><svg enable-background="new 0 0 52 52" id="Layer_1" version="1.1" viewBox="0 0 52 52" xml:space="preserve" xmlns="http://www.w3.org/2000/svg" xmlns:xlink="http://www.w3.org/1999/xlink"><g><g><g><path d="M50,50H2V32h48V50z M4,48h44V34H4V48z"/></g></g><g><g><path d="M47,34H35v-7h12V34z M37,32h8v-3h-8V32z"/></g></g><g><g><path d="M17,34H5v-7h12V34z M7,32h8v-3H7V32z"/></g></g><g><g><rect height="18" width="2" x="25" y="15"/></g></g><g><g><path d="M26,16c-3.859375,0-7-3.1401367-7-7s3.140625-7,7-7s7,3.1401367,7,7S29.859375,16,26,16z M26,4     c-2.7568359,0-5,2.2431641-5,5s2.2431641,5,5,5s5-2.2431641,5-5S28.7568359,4,26,4z"/></g></g><g><g><path d="M24,9h-2c0-2.2055664,1.7939453-4,4-4v2C24.8974609,7,24,7.8969727,24,9z"/></g></g></g></svg>