<?xml version="1.0" standalone="no"?>
<!DOCTYPE svg PUBLIC "-//W3C//DTD SVG 20010904//EN"
 "http://www.w3.org/TR/2001/REC-SVG-20010904/DTD/svg10.dtd">
<svg version="1.0" xmlns="http://www.w3.org/2000/svg" width="300.0px" height="300.0px">
<g transform="translate(0.000000,300.000000) scale(0.100000,-0.100000)"
fill="#bbccdd" stroke="none">
<path d="M100 2677 l0 -223 63 -27 c172 -75 309 -183 418 -329 64 -86 152
-259 195 -384 l28 -82 51 127 c103 258 221 416 405 541 78 53 223 123 255 123
44 0 227 -99 316 -171 167 -135 260 -280 381 -592 8 -23 13 -15 48 77 80 211
166 357 282 474 82 82 217 174 319 216 l69 28 0 223 0 222 -285 0 -285 0 0
-175 0 -175 -280 0 -280 0 0 175 0 175 -285 0 -285 0 0 -175 0 -175 -282 2
-283 3 -3 173 -2 172 -280 0 -280 0 0 -223z"/>
<path d="M100 1220 l0 -1150 1415 0 1415 0 0 1151 0 1150 -22 -6 c-53 -16
-150 -68 -206 -110 -219 -165 -369 -454 -455 -880 -17 -80 -27 -112 -30 -95
-93 439 -189 664 -361 848 -100 107 -270 212 -344 212 -41 0 -167 -64 -250
-127 -194 -148 -352 -451 -428 -823 -22 -106 -30 -128 -35 -104 -4 16 -19 85
-34 154 -80 370 -233 658 -428 806 -52 39 -210 124 -231 124 -3 0 -6 -517 -6
-1150z m259 900 c146 -142 246 -342 321 -639 28 -115 60 -270 60 -297 0 -12
-48 -14 -285 -14 l-285 0 0 545 0 545 61 -37 c34 -21 92 -67 128 -103z m2501
-405 l0 -545 -290 0 -290 0 5 23 c3 12 19 89 36 171 88 430 236 701 464 850
38 26 70 46 72 46 2 0 3 -245 3 -545z m-1380 254 l0 -269 -80 0 -80 0 0 228
c0 208 2 230 18 245 27 25 125 76 134 71 4 -3 8 -126 8 -275z m185 221 l45
-31 0 -229 0 -230 -80 0 -80 0 0 275 0 275 35 -14 c19 -8 55 -29 80 -46z
m-425 -295 l0 -195 -120 0 c-66 0 -120 2 -120 5 0 16 92 198 123 243 32 46
108 141 115 142 1 0 2 -88 2 -195z m655 65 c42 -65 89 -151 118 -222 l16 -38
-125 0 -124 0 0 197 0 197 36 -35 c19 -18 55 -63 79 -99z m-655 -429 c0 -75 3
-92 22 -116 l21 -27 18 23 c15 19 19 43 19 117 l0 92 80 0 80 0 0 -93 c0 -70
4 -98 16 -116 l17 -24 18 24 c15 19 19 42 19 117 l0 92 80 0 80 0 0 -93 c0
-70 4 -98 17 -116 l16 -24 19 23 c15 18 18 40 18 116 l0 94 139 0 138 0 26
-92 c22 -77 77 -330 77 -352 0 -3 -290 -6 -645 -6 -355 0 -645 3 -645 8 0 41
59 313 86 395 l16 47 134 0 134 0 0 -89z m1618 -913 l2 -478 -1345 0 -1345 0
0 480 0 480 1343 -2 1342 -3 3 -477z"/>
<path d="M200 620 l0 -440 245 0 245 0 0 110 0 110 133 0 c326 0 522 65 603
198 95 157 15 340 -180 414 -112 43 -176 48 -622 48 l-424 0 0 -440z m602 369
c134 -29 208 -111 208 -229 -1 -110 -122 -217 -267 -236 l-53 -7 0 242 0 241
30 0 c16 0 53 -5 82 -11z"/>
<path d="M1520 620 l0 -440 235 0 235 0 2 202 3 202 178 -202 178 -202 236 0
235 0 -50 57 c-28 32 -108 125 -180 207 l-130 148 152 197 c84 108 165 213
180 234 l28 37 -240 0 -241 0 -173 -221 -173 -221 -3 221 -2 221 -235 0 -235
0 0 -440z"/>
</g>
</svg>
